<?xml version="1.0" standalone="no"?>
<!DOCTYPE svg PUBLIC "-//W3C//DTD SVG 20010904//EN"
 "http://www.w3.org/TR/2001/REC-SVG-20010904/DTD/svg10.dtd">
<svg version="1.0" xmlns="http://www.w3.org/2000/svg"
 width="176.000000pt" height="176.000000pt" viewBox="0 0 176.000000 176.000000"
 preserveAspectRatio="xMidYMid meet">

<g transform="translate(0.000000,176.000000) scale(0.100000,-0.100000)"
fill="#fffff" stroke="none">
<path d="M1500 1369 l0 -50 48 3 47 3 3 48 3 47 -50 0 -51 0 0 -51z"/>
<path d="M1133 1133 c-8 -3 -13 -25 -13 -59 l0 -54 -45 0 c-45 0 -45 0 -45
-34 0 -34 1 -35 43 -38 l42 -3 5 -185 c4 -151 8 -191 23 -217 32 -59 105 -80
243 -68 80 6 84 8 84 30 0 33 -13 38 -104 40 -147 2 -158 20 -154 252 l3 148
123 3 122 3 0 34 0 34 -122 3 -123 3 -3 50 c-2 27 -9 53 -15 57 -13 9 -45 9
-64 1z"/>
<path d="M130 986 c0 -34 1 -35 48 -38 l47 -3 5 -235 5 -235 48 -3 47 -3 0
275 0 276 -100 0 -100 0 0 -34z"/>
<path d="M488 656 l2 -366 45 0 45 0 0 90 0 90 108 0 c94 0 112 3 146 23 48
29 92 94 112 166 34 116 -4 268 -83 329 -36 27 -39 27 -207 30 l-171 3 3 -365z
m327 262 c45 -52 57 -215 23 -296 -28 -65 -42 -72 -155 -72 l-103 0 0 201 0
201 106 -4 c101 -3 107 -5 129 -30z"/>
</g>
</svg>
